<?xml version="1.0" encoding="UTF-8" ?>
<!DOCTYPE svg PUBLIC "-//W3C//DTD SVG 1.1//EN" "http://www.w3.org/Graphics/SVG/1.1/DTD/svg11.dtd">
<svg width="850pt" height="115pt" viewBox="0 0 850 115" version="1.1" xmlns="http://www.w3.org/2000/svg">
<g id="#ffffffff">
</g>
<g id="#000000ff">
<path fill="#000000" opacity="1.00" d=" M 799.58 14.72 C 805.36 13.32 811.79 14.74 816.29 18.67 C 821.70 23.13 823.99 30.80 822.33 37.55 C 821.08 43.57 816.48 48.70 810.73 50.80 C 803.94 53.43 795.67 51.72 790.58 46.48 C 784.65 40.89 783.46 31.33 787.21 24.21 C 789.68 19.43 794.38 15.98 799.58 14.72 M 800.52 18.73 C 791.54 20.34 786.99 31.20 790.58 39.20 C 793.58 47.02 803.93 50.14 811.07 46.13 C 819.60 41.95 820.92 29.07 814.43 22.55 C 810.94 18.86 805.38 17.59 800.52 18.73 Z" />
<path fill="#000000" opacity="1.00" d=" M 794.13 36.12 C 792.21 30.52 795.99 23.64 802.00 22.91 C 806.08 21.86 810.31 23.57 813.19 26.49 C 811.47 27.97 809.82 29.51 808.21 31.09 C 806.61 29.85 804.12 28.56 802.49 30.49 C 800.30 32.98 802.38 37.36 805.86 36.82 C 806.44 36.46 807.59 35.72 808.16 35.35 C 809.78 36.81 811.43 38.24 813.11 39.64 C 808.33 46.00 796.05 44.16 794.13 36.12 Z" />
<path fill="#000000" opacity="1.00" d=" M 557.67 30.99 C 595.65 31.00 633.63 31.02 671.61 30.99 C 668.30 34.34 664.94 37.64 661.64 40.99 C 630.21 41.01 598.78 41.01 567.35 40.99 C 564.06 37.73 560.82 34.40 557.67 30.99 Z" />
<path fill="#000000" opacity="1.00" d=" M 691.35 31.00 C 707.90 31.00 724.45 31.00 741.00 31.00 C 741.00 47.59 741.00 64.18 741.00 80.77 C 736.92 80.74 732.84 80.75 728.76 80.76 C 728.74 67.47 728.74 54.18 728.77 40.89 C 712.98 41.14 697.18 40.93 681.39 41.01 C 684.69 37.65 688.06 34.36 691.35 31.00 Z" />
<path fill="#000000" opacity="1.00" d=" M 760.76 31.00 C 764.84 30.98 768.92 30.99 773.00 31.00 C 773.00 47.59 773.00 64.18 773.00 80.77 C 769.01 80.74 765.03 80.75 761.05 80.77 C 760.68 74.19 760.72 67.59 760.76 61.00 C 755.75 60.99 750.75 61.03 745.75 60.99 C 745.75 57.66 745.75 54.34 745.75 51.01 C 750.75 50.97 755.75 51.01 760.76 51.00 C 760.74 44.33 760.74 37.67 760.76 31.00 Z" />
<path fill="#000000" opacity="1.00" d=" M 259.29 33.77 C 276.54 33.95 293.78 33.23 311.03 33.76 C 327.64 33.85 344.25 33.29 360.86 33.76 C 372.52 45.35 384.09 57.03 395.76 68.61 C 395.73 57.00 395.77 45.39 395.74 33.78 C 410.15 33.41 424.57 33.96 438.99 33.76 C 456.02 33.18 473.05 34.07 490.08 33.68 C 502.42 33.28 514.77 33.87 527.11 33.75 C 532.12 38.73 537.08 43.76 542.11 48.71 C 539.61 51.28 537.08 53.83 534.48 56.30 C 529.62 56.20 524.76 56.27 519.90 56.25 C 522.34 53.78 524.81 51.35 527.25 48.88 C 525.55 47.14 523.82 45.43 522.08 43.74 C 484.05 43.81 446.03 43.74 408.00 43.75 C 407.99 57.09 408.01 70.42 407.99 83.76 C 404.05 83.75 400.10 83.75 396.16 83.76 C 382.79 70.45 369.48 57.08 356.13 43.75 C 320.64 43.80 285.14 43.76 249.65 43.75 C 252.93 40.49 256.20 37.21 259.29 33.77 Z" />
<path fill="#000000" opacity="1.00" d=" M 585.01 46.00 C 589.09 46.01 593.17 45.98 597.26 45.99 C 597.23 57.58 597.26 69.17 597.25 80.76 C 593.16 80.74 589.08 80.76 585.01 80.77 C 584.99 69.18 585.00 57.59 585.01 46.00 Z" />
<path fill="#000000" opacity="1.00" d=" M 614.75 46.00 C 618.83 46.00 622.91 46.00 627.00 46.00 C 626.99 47.67 626.98 49.33 626.99 51.00 C 634.44 51.02 641.89 50.97 649.34 51.00 C 646.11 54.35 642.71 57.52 639.54 60.92 C 635.35 61.07 631.17 60.99 626.99 61.00 C 626.99 64.25 626.99 67.51 627.01 70.76 C 634.38 70.75 641.75 70.73 649.12 70.76 C 652.45 74.08 655.80 77.39 659.10 80.75 C 644.31 80.76 629.53 80.75 614.75 80.76 C 614.75 69.17 614.74 57.58 614.75 46.00 Z" />
<path fill="#000000" opacity="1.00" d=" M 661.65 60.98 C 666.76 56.06 671.53 50.75 676.83 46.05 C 681.67 45.87 686.53 46.08 691.38 46.00 C 686.41 50.95 681.47 55.93 676.48 60.85 C 679.77 64.16 683.08 67.45 686.38 70.75 C 696.29 70.74 706.21 70.75 716.13 70.75 C 719.42 74.02 722.48 77.52 725.85 80.72 C 711.03 80.80 696.21 80.72 681.38 80.76 C 674.81 74.17 668.19 67.61 661.65 60.98 Z" />
<path fill="#000000" opacity="1.00" d=" M 244.36 49.01 C 249.37 48.98 254.37 49.00 259.38 49.00 C 254.42 53.95 249.45 58.91 244.49 63.87 C 247.76 67.19 251.09 70.46 254.39 73.77 C 264.30 73.73 274.21 73.76 284.13 73.75 C 287.46 77.08 290.79 80.40 294.10 83.75 C 279.25 83.74 264.40 83.78 249.55 83.73 C 242.95 77.04 236.27 70.42 229.63 63.77 C 234.52 58.83 239.47 53.95 244.36 49.01 Z" />
<path fill="#000000" opacity="1.00" d=" M 297.01 48.76 C 301.00 48.75 305.00 48.74 309.00 48.76 C 309.00 50.42 309.01 52.09 309.02 53.76 C 316.47 53.75 323.91 53.74 331.35 53.76 C 328.07 57.08 324.73 60.34 321.49 63.71 C 317.32 63.79 313.16 63.75 309.00 63.74 C 309.00 67.08 309.00 70.42 309.00 73.76 C 316.43 73.72 323.86 73.81 331.29 73.71 C 334.69 77.02 338.00 80.42 341.38 83.76 C 326.58 83.75 311.79 83.74 297.00 83.76 C 297.00 72.10 297.00 60.43 297.01 48.76 Z" />
<path fill="#000000" opacity="1.00" d=" M 344.00 49.00 C 348.00 49.00 352.00 49.00 356.00 49.00 C 356.00 60.58 356.02 72.17 355.99 83.75 C 351.99 83.75 348.00 83.75 344.01 83.76 C 343.98 72.17 344.01 60.59 344.00 49.00 Z" />
<path fill="#000000" opacity="1.00" d=" M 425.75 49.00 C 429.83 48.99 433.92 49.01 438.01 49.00 C 438.00 60.59 438.00 72.18 438.01 83.76 C 433.92 83.75 429.84 83.74 425.77 83.76 C 425.72 72.17 425.76 60.59 425.75 49.00 Z" />
<path fill="#000000" opacity="1.00" d=" M 455.76 48.76 C 459.84 48.75 463.91 48.75 467.99 48.76 C 467.99 50.42 468.00 52.08 468.01 53.75 C 475.37 53.75 482.73 53.77 490.10 53.73 C 486.80 56.91 483.73 60.31 480.53 63.58 C 476.38 64.01 472.18 63.62 468.01 63.76 C 467.99 67.09 467.99 70.42 468.00 73.76 C 475.43 73.73 482.87 73.78 490.30 73.74 C 493.43 77.22 496.85 80.41 500.11 83.78 C 485.32 83.72 470.54 83.77 455.76 83.75 C 455.74 72.09 455.74 60.42 455.76 48.76 Z" />
<path fill="#000000" opacity="1.00" d=" M 502.75 49.00 C 506.83 49.00 510.92 49.00 515.00 49.00 C 514.99 60.59 515.01 72.17 515.00 83.76 C 510.92 83.75 506.83 83.75 502.75 83.76 C 502.75 72.17 502.75 60.59 502.75 49.00 Z" />
<path fill="#000000" opacity="1.00" d=" M 519.78 61.25 C 524.72 61.24 529.67 61.26 534.62 61.25 C 542.11 68.76 549.64 76.22 557.10 83.76 C 552.11 83.76 547.12 83.75 542.13 83.75 C 537.96 79.58 533.79 75.40 529.61 71.24 C 526.33 71.26 523.05 71.25 519.77 71.25 C 519.73 67.91 519.73 64.58 519.78 61.25 Z" />
</g>
<g id="#993622ff">
<path fill="#993622" opacity="1.00" d=" M 126.09 33.78 C 137.16 33.22 148.25 33.98 159.34 33.74 C 176.54 50.95 193.92 67.98 210.84 85.47 C 205.75 85.54 200.66 85.51 195.57 85.49 C 182.44 72.22 169.16 59.11 156.01 45.86 C 155.20 45.09 154.38 44.04 153.09 44.28 C 148.42 44.19 143.74 44.33 139.07 44.24 C 137.76 42.91 136.43 41.59 135.09 40.28 C 120.08 55.22 105.27 70.37 90.30 85.37 C 90.23 71.65 90.28 57.94 90.29 44.23 C 73.84 44.31 57.38 44.27 40.93 44.25 C 44.45 40.73 47.88 37.11 51.50 33.69 C 61.99 33.79 72.48 33.71 82.97 33.75 C 89.56 33.83 96.17 33.20 102.75 33.85 C 102.67 41.62 102.73 49.39 102.74 57.16 C 110.46 49.30 118.31 41.58 126.09 33.78 Z" />
<path fill="#993622" opacity="1.00" d=" M 35.78 49.52 C 40.90 49.44 46.01 49.55 51.12 49.48 C 46.02 54.63 40.87 59.74 35.78 64.90 C 39.26 68.24 42.48 71.84 46.08 75.05 C 56.45 75.75 67.02 74.77 77.38 75.52 C 80.66 78.81 83.73 82.31 87.15 85.48 C 71.71 85.53 56.28 85.53 40.84 85.48 C 34.03 78.64 27.19 71.83 20.37 64.99 C 25.50 59.83 30.70 54.73 35.78 49.52 Z" />
<path fill="#993622" opacity="1.00" d=" M 141.74 49.55 C 145.98 49.46 150.23 49.51 154.48 49.51 C 154.49 53.84 154.46 58.18 154.50 62.51 C 158.83 62.49 163.16 62.47 167.48 62.53 C 170.81 65.98 174.24 69.34 177.61 72.74 C 169.91 72.73 162.21 72.73 154.51 72.76 C 154.47 77.00 154.50 81.25 154.47 85.50 C 150.22 85.50 145.98 85.51 141.74 85.51 C 141.73 73.52 141.74 61.54 141.74 49.55 Z" />
</g>
</svg>
